<svg width="35" height="24" viewBox="0 0 35 24" fill="none" xmlns="http://www.w3.org/2000/svg">
<path fill-rule="evenodd" clip-rule="evenodd" d="M33.093 5.534C31.927 4.271 30.27 3.582 28.43 3.582H23.627V0.881C23.627 0.396 23.231 0 22.747 0H0.88C0.396 0 0 0.396 0 0.881V20.25C0 20.734 0.396 21.13 0.88 21.13H4.385C4.671 22.76 6.086 24 7.795 24C9.503 24 10.919 22.76 11.205 21.13H22.747H24.675C24.961 22.76 26.376 24 28.085 24C29.794 24 31.209 22.76 31.495 21.13H34.12C34.604 21.13 35 20.734 35 20.25V11.148C34.993 8.822 34.34 6.877 33.093 5.534ZM1.76 1.761H21.867V4.462V19.376H11.051C10.574 18.04 9.291 17.079 7.795 17.079C6.299 17.079 5.016 18.04 4.539 19.376H1.76V1.761ZM7.795 22.238C6.856 22.238 6.094 21.475 6.094 20.536C6.094 19.596 6.856 18.833 7.795 18.833C8.734 18.833 9.496 19.596 9.496 20.536C9.496 21.475 8.734 22.238 7.795 22.238ZM28.085 22.238C27.146 22.238 26.384 21.475 26.384 20.536C26.384 19.596 27.146 18.833 28.085 18.833C29.024 18.833 29.786 19.596 29.786 20.536C29.786 21.475 29.024 22.238 28.085 22.238ZM33.233 19.369H31.341C30.864 18.033 29.581 17.072 28.085 17.072C26.589 17.072 25.306 18.033 24.829 19.369H23.634V5.343H28.437C31.4 5.343 33.24 7.567 33.24 11.148V19.369H33.233Z" fill="#9FA3A7"/>
</svg>
